<?xml version="1.0" encoding="utf-8"?>
<!-- Generator: Adobe Illustrator 26.0.1, SVG Export Plug-In . SVG Version: 6.00 Build 0)  -->
<svg version="1.1" id="Layer_1" xmlns="http://www.w3.org/2000/svg" xmlns:xlink="http://www.w3.org/1999/xlink" x="0px" y="0px"
	 viewBox="0 0 182.52 78.89" style="enable-background:new 0 0 182.52 78.89;" xml:space="preserve">
<g>
	<path d="M5.35,19.73c0,0.5,0.04,0.96,0.12,1.37c0.08,0.41,0.23,0.76,0.45,1.04c0.22,0.28,0.52,0.5,0.89,0.66
		c0.37,0.16,0.84,0.24,1.4,0.24c0.66,0,1.26-0.22,1.79-0.65c0.53-0.43,0.8-1.1,0.8-2c0-0.48-0.07-0.9-0.2-1.25
		c-0.13-0.35-0.35-0.67-0.65-0.95c-0.3-0.28-0.7-0.54-1.19-0.77c-0.49-0.23-1.1-0.47-1.82-0.71c-0.96-0.32-1.8-0.67-2.5-1.05
		c-0.7-0.38-1.29-0.83-1.76-1.34c-0.47-0.51-0.82-1.1-1.04-1.78c-0.22-0.67-0.33-1.45-0.33-2.33c0-2.13,0.59-3.72,1.78-4.76
		C4.27,4.41,5.9,3.89,7.97,3.89c0.96,0,1.85,0.11,2.67,0.32s1.52,0.55,2.11,1.02c0.59,0.47,1.05,1.08,1.39,1.81
		c0.33,0.73,0.5,1.61,0.5,2.64v0.6h-4.16c0-1.02-0.18-1.81-0.54-2.36C9.56,7.36,8.96,7.08,8.12,7.08c-0.48,0-0.88,0.07-1.2,0.21
		C6.59,7.43,6.34,7.62,6.15,7.85c-0.19,0.23-0.32,0.5-0.39,0.8S5.65,9.26,5.65,9.58c0,0.66,0.14,1.22,0.42,1.67
		c0.28,0.45,0.88,0.87,1.81,1.25l3.34,1.45c0.82,0.36,1.5,0.74,2.02,1.13c0.52,0.39,0.94,0.81,1.25,1.27
		c0.31,0.45,0.53,0.95,0.65,1.49c0.12,0.54,0.18,1.14,0.18,1.81c0,2.27-0.66,3.92-1.97,4.96c-1.32,1.03-3.15,1.55-5.5,1.55
		c-2.45,0-4.2-0.53-5.26-1.6c-1.05-1.06-1.58-2.59-1.58-4.58V19.1h4.34V19.73z"/>
	<path d="M22.58,4.31v8.22h5.06V4.31h4.34v21.51h-4.34v-9.55h-5.06v9.55h-4.34V4.31H22.58z"/>
	<path d="M45.29,4.31l5.69,21.51h-4.52l-0.99-4.55h-5.72l-0.99,4.55h-4.52l5.69-21.51H45.29z M44.72,17.71l-2.08-9.67h-0.06
		l-2.08,9.67H44.72z"/>
	<path d="M57.58,12.92h0.06l5.48-8.62h4.7l-5.84,9.22l6.51,12.29h-4.88l-4.43-8.83l-1.6,2.44v6.39h-4.34V4.31h4.34V12.92z"/>
	<path d="M82.19,7.86h-7.68v5.06h7.23v3.55h-7.23v5.78h7.98v3.55H70.17V4.31h12.02V7.86z"/>
	<path d="M88.91,19.73c0,0.5,0.04,0.96,0.12,1.37c0.08,0.41,0.23,0.76,0.45,1.04c0.22,0.28,0.52,0.5,0.89,0.66
		c0.37,0.16,0.84,0.24,1.4,0.24c0.66,0,1.26-0.22,1.79-0.65c0.53-0.43,0.8-1.1,0.8-2c0-0.48-0.07-0.9-0.2-1.25
		c-0.13-0.35-0.35-0.67-0.65-0.95c-0.3-0.28-0.7-0.54-1.19-0.77c-0.49-0.23-1.1-0.47-1.82-0.71c-0.96-0.32-1.8-0.67-2.5-1.05
		c-0.7-0.38-1.29-0.83-1.76-1.34c-0.47-0.51-0.82-1.1-1.04-1.78c-0.22-0.67-0.33-1.45-0.33-2.33c0-2.13,0.59-3.72,1.78-4.76
		c1.19-1.04,2.81-1.57,4.88-1.57c0.96,0,1.85,0.11,2.67,0.32s1.52,0.55,2.11,1.02c0.59,0.47,1.05,1.08,1.38,1.81
		c0.33,0.73,0.5,1.61,0.5,2.64v0.6h-4.16c0-1.02-0.18-1.81-0.54-2.36c-0.36-0.55-0.96-0.83-1.81-0.83c-0.48,0-0.88,0.07-1.2,0.21
		c-0.32,0.14-0.58,0.33-0.77,0.56c-0.19,0.23-0.32,0.5-0.39,0.8s-0.11,0.61-0.11,0.93c0,0.66,0.14,1.22,0.42,1.67
		c0.28,0.45,0.88,0.87,1.81,1.25l3.34,1.45c0.82,0.36,1.5,0.74,2.02,1.13s0.94,0.81,1.25,1.27c0.31,0.45,0.53,0.95,0.65,1.49
		s0.18,1.14,0.18,1.81c0,2.27-0.66,3.92-1.97,4.96c-1.31,1.03-3.15,1.55-5.5,1.55c-2.45,0-4.2-0.53-5.26-1.6
		c-1.05-1.06-1.58-2.59-1.58-4.58V19.1h4.34V19.73z"/>
	<path d="M109.4,4.31c1.1,0,2.03,0.19,2.79,0.56c0.75,0.37,1.36,0.86,1.82,1.46c0.46,0.6,0.79,1.29,0.99,2.06
		c0.2,0.77,0.3,1.56,0.3,2.37c0,1.1-0.17,2.07-0.5,2.89c-0.33,0.82-0.79,1.5-1.39,2.02c-0.59,0.52-1.31,0.91-2.15,1.17
		c-0.84,0.26-1.78,0.39-2.8,0.39h-2.32v8.59h-4.34V4.31H109.4z M108.07,14.04c0.86,0,1.56-0.26,2.09-0.78
		c0.53-0.52,0.8-1.33,0.8-2.44c0-1.08-0.23-1.91-0.69-2.47c-0.46-0.56-1.24-0.84-2.32-0.84h-1.81v6.54H108.07z"/>
	<path d="M130.21,7.86h-7.68v5.06h7.23v3.55h-7.23v5.78h7.98v3.55h-12.32V4.31h12.02V7.86z"/>
	<path d="M142.99,4.31l5.69,21.51h-4.52l-0.99-4.55h-5.72l-0.99,4.55h-4.52l5.69-21.51H142.99z M142.41,17.71l-2.08-9.67h-0.06
		l-2.08,9.67H142.41z"/>
	<path d="M158.95,4.31c1.81,0,3.21,0.46,4.22,1.37c1,0.91,1.51,2.3,1.51,4.17c0,1.45-0.29,2.63-0.87,3.54
		c-0.58,0.91-1.49,1.5-2.71,1.76v0.06c1.08,0.16,1.88,0.51,2.38,1.05s0.81,1.42,0.93,2.62c0.04,0.4,0.07,0.84,0.09,1.31
		c0.02,0.47,0.04,1,0.06,1.58c0.04,1.14,0.1,2.02,0.18,2.62c0.12,0.6,0.38,1.01,0.78,1.24v0.18h-4.7c-0.22-0.3-0.36-0.65-0.42-1.04
		c-0.06-0.39-0.1-0.8-0.12-1.22l-0.12-4.13c-0.04-0.84-0.25-1.51-0.63-1.99c-0.38-0.48-1.02-0.72-1.93-0.72h-2.32v9.1h-4.34V4.31
		H158.95z M157.08,13.71c1.04,0,1.85-0.25,2.41-0.74c0.56-0.49,0.84-1.32,0.84-2.49c0-1.99-1-2.98-3.01-2.98h-2.05v6.21H157.08z"/>
	<path d="M180.46,7.86h-7.68v5.06h7.23v3.55h-7.23v5.78h7.98v3.55h-12.32V4.31h12.02V7.86z"/>
	<path d="M11.06,30.25l5.69,21.51h-4.52l-0.99-4.55H5.51l-0.99,4.55H0l5.69-21.51H11.06z M10.48,43.65L8.4,33.98H8.34l-2.08,9.67
		H10.48z"/>
	<path d="M29.25,44.98h0.06V30.25h3.98v21.51h-4.94l-5.3-15.06h-0.06v15.06h-3.98V30.25h5L29.25,44.98z"/>
	<path d="M44.37,30.25c1.51,0,2.72,0.25,3.65,0.74c0.92,0.49,1.64,1.19,2.15,2.11s0.86,2.01,1.04,3.3c0.18,1.29,0.27,2.72,0.27,4.31
		c0,1.89-0.12,3.53-0.35,4.92c-0.23,1.4-0.63,2.55-1.19,3.45c-0.56,0.9-1.32,1.58-2.26,2.02c-0.94,0.44-2.14,0.66-3.58,0.66h-6.84
		V30.25H44.37z M43.53,48.56c0.76,0,1.38-0.13,1.84-0.39c0.46-0.26,0.83-0.69,1.1-1.29c0.27-0.6,0.45-1.4,0.54-2.38
		s0.14-2.21,0.14-3.68c0-1.22-0.04-2.3-0.12-3.22c-0.08-0.92-0.25-1.69-0.5-2.3c-0.25-0.61-0.62-1.07-1.11-1.39
		s-1.15-0.47-1.97-0.47H41.6v15.12H43.53z"/>
	<path d="M67.95,34.09c-0.37-0.71-1.05-1.07-2.03-1.07c-0.54,0-0.99,0.15-1.34,0.44c-0.35,0.29-0.63,0.76-0.83,1.42
		c-0.2,0.65-0.34,1.51-0.42,2.56c-0.08,1.05-0.12,2.34-0.12,3.87c0,1.63,0.06,2.94,0.17,3.95c0.11,1,0.28,1.78,0.51,2.33
		c0.23,0.55,0.52,0.92,0.87,1.11c0.35,0.19,0.76,0.29,1.22,0.29c0.38,0,0.74-0.06,1.07-0.2c0.33-0.13,0.62-0.39,0.86-0.78
		c0.24-0.39,0.43-0.94,0.57-1.66c0.14-0.71,0.21-1.65,0.21-2.82h4.34c0,1.17-0.09,2.27-0.27,3.31s-0.52,1.96-1.01,2.74
		s-1.19,1.4-2.08,1.84c-0.89,0.44-2.05,0.66-3.48,0.66c-1.63,0-2.92-0.26-3.89-0.78c-0.96-0.52-1.7-1.27-2.21-2.26
		s-0.84-2.16-0.99-3.53c-0.15-1.37-0.23-2.87-0.23-4.52c0-1.63,0.08-3.13,0.23-4.5c0.15-1.38,0.48-2.56,0.99-3.54
		c0.51-0.98,1.25-1.75,2.21-2.3c0.96-0.55,2.26-0.83,3.89-0.83c1.55,0,2.77,0.25,3.66,0.75s1.56,1.14,2,1.91
		c0.44,0.77,0.72,1.61,0.83,2.5c0.11,0.89,0.17,1.73,0.17,2.52H68.5C68.5,35.94,68.32,34.8,67.95,34.09z"/>
	<path d="M76.02,36.5c0.15-1.38,0.48-2.56,0.99-3.54c0.51-0.98,1.25-1.75,2.21-2.3c0.96-0.55,2.26-0.83,3.89-0.83
		c1.63,0,2.92,0.28,3.89,0.83c0.96,0.55,1.7,1.32,2.21,2.3c0.51,0.98,0.84,2.16,0.99,3.54c0.15,1.38,0.23,2.88,0.23,4.5
		c0,1.65-0.08,3.15-0.23,4.52c-0.15,1.37-0.48,2.54-0.99,3.53s-1.25,1.74-2.21,2.26c-0.96,0.52-2.26,0.78-3.89,0.78
		c-1.63,0-2.92-0.26-3.89-0.78c-0.96-0.52-1.7-1.27-2.21-2.26s-0.84-2.16-0.99-3.53c-0.15-1.37-0.23-2.87-0.23-4.52
		C75.79,39.38,75.87,37.88,76.02,36.5z M80.24,44.69c0.07,1.01,0.21,1.84,0.42,2.47s0.51,1.09,0.9,1.39s0.91,0.44,1.55,0.44
		s1.16-0.15,1.55-0.44s0.69-0.75,0.9-1.39c0.21-0.63,0.35-1.46,0.42-2.47c0.07-1.01,0.11-2.24,0.11-3.69c0-1.45-0.04-2.67-0.11-3.67
		c-0.07-1-0.21-1.83-0.42-2.47c-0.21-0.64-0.51-1.11-0.9-1.4s-0.91-0.44-1.55-0.44s-1.16,0.15-1.55,0.44s-0.69,0.76-0.9,1.4
		c-0.21,0.64-0.35,1.47-0.42,2.47c-0.07,1-0.11,2.23-0.11,3.67C80.13,42.45,80.17,43.68,80.24,44.69z"/>
	<path d="M100.28,30.25l3.07,15.18h0.06l3.1-15.18h6.42v21.51h-3.98V34.59h-0.06l-3.83,17.17h-3.37l-3.83-17.17h-0.06v17.17h-3.98
		V30.25H100.28z"/>
	<path d="M124.38,30.25c1.1,0,2.03,0.19,2.79,0.56c0.75,0.37,1.36,0.86,1.82,1.46c0.46,0.6,0.79,1.29,0.99,2.06
		c0.2,0.77,0.3,1.56,0.3,2.36c0,1.1-0.17,2.07-0.5,2.89c-0.33,0.82-0.79,1.5-1.39,2.02c-0.59,0.52-1.31,0.91-2.15,1.17
		c-0.84,0.26-1.78,0.39-2.8,0.39h-2.32v8.59h-4.34V30.25H124.38z M123.06,39.98c0.86,0,1.56-0.26,2.09-0.78
		c0.53-0.52,0.8-1.34,0.8-2.44c0-1.08-0.23-1.91-0.69-2.47c-0.46-0.56-1.24-0.84-2.32-0.84h-1.81v6.54H123.06z"/>
	<path d="M141.62,30.25l5.69,21.51h-4.52l-0.99-4.55h-5.72l-0.99,4.55h-4.52l5.69-21.51H141.62z M141.04,43.65l-2.08-9.67h-0.06
		l-2.08,9.67H141.04z"/>
	<path d="M159.81,44.98h0.06V30.25h3.98v21.51h-4.94l-5.3-15.06h-0.06v15.06h-3.98V30.25h5L159.81,44.98z"/>
	<path d="M173.91,38.56h0.06l3.01-8.31h4.7l-5.57,13.04v8.46h-4.34v-8.46l-5.57-13.04h4.88L173.91,38.56z"/>
</g>
<g>
	<g>
		<path d="M63.7,73.16c-0.16,0-0.28-0.02-0.38-0.04c-0.1-0.03-0.14-0.08-0.14-0.15c0-0.14,0.2-0.25,0.59-0.32
			c0.45-0.08,0.79-0.22,1-0.41c0.21-0.19,0.31-0.51,0.31-0.95v-7.57c0-0.54-0.07-0.95-0.21-1.24c-0.14-0.29-0.43-0.47-0.89-0.56
			c-0.2-0.04-0.35-0.08-0.45-0.14s-0.14-0.13-0.14-0.21c0-0.07,0.05-0.12,0.14-0.15s0.22-0.04,0.38-0.04c0.32,0,0.56,0,0.73,0
			s0.31,0,0.46,0.01c0.14,0.01,0.33,0.01,0.57,0.01c0.24,0,0.48-0.01,0.73-0.03c0.25-0.02,0.48-0.04,0.69-0.05
			c0.21-0.02,0.41-0.03,0.57-0.03c1.36,0,2.46,0.28,3.29,0.84c0.83,0.56,1.25,1.35,1.25,2.35c0,0.73-0.14,1.4-0.43,2.02
			c-0.29,0.62-0.73,1.11-1.32,1.48c-0.59,0.37-1.35,0.56-2.27,0.56c-0.26,0-0.46-0.04-0.6-0.12c-0.14-0.08-0.21-0.15-0.21-0.22
			c0-0.05,0.03-0.1,0.1-0.16c0.07-0.06,0.13-0.09,0.19-0.09c0.06,0,0.15,0.01,0.28,0.02c0.13,0.01,0.31,0.02,0.55,0.02
			c0.72,0,1.26-0.3,1.62-0.9c0.36-0.6,0.55-1.42,0.55-2.48c0-0.96-0.28-1.66-0.84-2.12c-0.56-0.46-1.28-0.69-2.15-0.69
			c-0.33,0-0.61,0.06-0.83,0.17c-0.21,0.11-0.32,0.31-0.32,0.58v8.55c0,0.43,0.09,0.78,0.27,1.04c0.18,0.26,0.49,0.44,0.93,0.52
			c0.2,0.04,0.35,0.08,0.45,0.13s0.14,0.11,0.14,0.2c0,0.07-0.05,0.12-0.14,0.15c-0.1,0.03-0.22,0.04-0.38,0.04
			c-0.32,0-0.57-0.01-0.74-0.04c-0.17-0.02-0.33-0.04-0.47-0.06c-0.14-0.02-0.32-0.03-0.55-0.03c-0.3,0-0.56,0.01-0.8,0.03
			c-0.23,0.02-0.47,0.04-0.7,0.06C64.3,73.15,64.02,73.16,63.7,73.16z"/>
		<path d="M73.31,73.16c-0.16,0-0.28-0.02-0.38-0.06c-0.1-0.04-0.14-0.1-0.14-0.17c0-0.08,0.05-0.16,0.15-0.22
			c0.1-0.06,0.25-0.13,0.44-0.19c0.31-0.1,0.6-0.24,0.86-0.43c0.26-0.19,0.49-0.51,0.68-0.95c0.33-0.77,0.64-1.48,0.92-2.15
			c0.28-0.67,0.55-1.33,0.8-1.97c0.25-0.65,0.51-1.32,0.78-2.02s0.55-1.46,0.85-2.29c0.06-0.17,0.11-0.33,0.16-0.5
			s0.08-0.35,0.09-0.54c0.11-0.04,0.22-0.07,0.32-0.11c0.11-0.04,0.22-0.09,0.32-0.16c0.11-0.07,0.18-0.18,0.22-0.32
			s0.08-0.24,0.12-0.29c0.01-0.01,0.03-0.02,0.04-0.02s0.03,0.01,0.04,0.04c0.02,0.05,0.04,0.11,0.06,0.18
			c0.02,0.07,0.04,0.14,0.06,0.22c0.29,0.91,0.59,1.83,0.9,2.78s0.61,1.86,0.91,2.74c0.29,0.88,0.56,1.67,0.81,2.37
			c0.25,0.7,0.44,1.26,0.58,1.69c0.17,0.48,0.35,0.84,0.54,1.08c0.19,0.24,0.39,0.41,0.6,0.5c0.21,0.1,0.43,0.17,0.67,0.22
			c0.2,0.04,0.35,0.09,0.45,0.17c0.1,0.08,0.14,0.16,0.14,0.24c0,0.07-0.05,0.12-0.14,0.14c-0.1,0.02-0.22,0.04-0.38,0.04
			c-0.17,0-0.39-0.01-0.68-0.03c-0.29-0.02-0.59-0.04-0.92-0.05c-0.32-0.02-0.62-0.03-0.9-0.03c-0.23,0-0.46,0-0.7,0
			c-0.24,0-0.46,0-0.66,0.01c-0.2,0.01-0.38,0.01-0.52,0.01c-0.16,0-0.28-0.02-0.38-0.05s-0.14-0.09-0.14-0.16
			c0-0.08,0.06-0.15,0.18-0.21c0.12-0.06,0.26-0.1,0.41-0.12c0.39-0.06,0.68-0.16,0.84-0.3c0.17-0.14,0.25-0.31,0.25-0.5
			c0-0.18-0.04-0.44-0.12-0.78c-0.08-0.34-0.17-0.71-0.28-1.09C81.1,69.45,81,69.1,80.9,68.81c-0.02-0.1-0.07-0.15-0.13-0.17
			c-0.07-0.02-0.18-0.03-0.35-0.03h-3.39c-0.05,0-0.1,0.02-0.15,0.06c-0.05,0.04-0.1,0.13-0.15,0.26c-0.04,0.12-0.1,0.31-0.18,0.56
			c-0.08,0.26-0.17,0.53-0.25,0.82c-0.08,0.29-0.16,0.54-0.22,0.77c-0.06,0.23-0.09,0.37-0.09,0.43c0,0.26,0.1,0.48,0.31,0.66
			c0.2,0.17,0.45,0.29,0.74,0.37c0.39,0.11,0.59,0.23,0.59,0.36c0,0.07-0.05,0.12-0.14,0.15c-0.1,0.03-0.22,0.04-0.38,0.04
			c-0.16,0-0.38-0.01-0.68-0.02s-0.62-0.02-0.95-0.02c-0.39,0-0.78,0.02-1.15,0.05C73.95,73.15,73.61,73.16,73.31,73.16z
			 M77.51,68.02h2.78c0.17,0,0.25-0.03,0.25-0.09c0-0.02,0-0.05-0.01-0.08c-0.01-0.03-0.02-0.06-0.03-0.1l-1.4-4.38
			c-0.07-0.22-0.13-0.32-0.16-0.32c-0.02,0-0.07,0.1-0.14,0.3l-1.63,4.39c-0.02,0.07-0.04,0.12-0.04,0.14c0,0.06,0.03,0.1,0.1,0.11
			C77.3,68.01,77.39,68.02,77.51,68.02z"/>
		<path d="M98.46,73.45c-0.33,0-0.65-0.03-0.95-0.08s-0.57-0.15-0.83-0.3c-0.25-0.14-0.48-0.34-0.7-0.59
			c-0.29-0.36-0.56-0.7-0.82-1.03c-0.26-0.33-0.54-0.71-0.83-1.14s-0.65-0.98-1.07-1.65c-0.18-0.3-0.44-0.53-0.77-0.7
			c-0.26-0.13-0.52-0.22-0.78-0.28c-0.26-0.05-0.47-0.09-0.64-0.1c-0.1-0.01-0.16,0.02-0.21,0.09c-0.04,0.07-0.06,0.16-0.06,0.27
			v3.16c0,0.38,0.09,0.71,0.27,1s0.49,0.46,0.93,0.55c0.2,0.04,0.35,0.08,0.45,0.13s0.14,0.11,0.14,0.2c0,0.07-0.05,0.12-0.14,0.15
			c-0.1,0.03-0.22,0.04-0.38,0.04c-0.32,0-0.57-0.01-0.74-0.04c-0.17-0.02-0.33-0.04-0.47-0.06c-0.14-0.02-0.32-0.03-0.55-0.03
			c-0.3,0-0.56,0.01-0.8,0.03c-0.23,0.02-0.47,0.04-0.7,0.06c-0.23,0.02-0.51,0.04-0.83,0.04c-0.16,0-0.28-0.02-0.38-0.04
			c-0.1-0.03-0.14-0.08-0.14-0.15c0-0.14,0.2-0.25,0.59-0.32c0.45-0.08,0.79-0.22,1-0.41c0.21-0.19,0.31-0.51,0.31-0.95v-7.64
			c0-0.45-0.02-0.8-0.06-1.03s-0.14-0.4-0.29-0.49c-0.15-0.1-0.4-0.16-0.74-0.2c-0.2-0.02-0.35-0.07-0.45-0.13
			c-0.1-0.07-0.14-0.14-0.14-0.22c0-0.07,0.05-0.12,0.14-0.15s0.22-0.04,0.38-0.04c0.32,0,0.56,0,0.73,0s0.31,0,0.46,0.01
			c0.14,0.01,0.33,0.01,0.57,0.01c0.23,0,0.43-0.01,0.61-0.03c0.18-0.02,0.38-0.03,0.6-0.04s0.5-0.02,0.85-0.02
			c1.31,0,2.32,0.25,3,0.74s1.03,1.23,1.03,2.21c0,0.54-0.11,1-0.32,1.39c-0.21,0.39-0.48,0.71-0.81,0.98
			c-0.32,0.26-0.65,0.48-0.99,0.65c-0.05,0.01-0.07,0.04-0.06,0.08s0.03,0.09,0.06,0.15c0.37,0.56,0.73,1.09,1.07,1.6
			c0.34,0.5,0.71,0.99,1.12,1.47s0.89,0.97,1.45,1.49c0.31,0.28,0.63,0.44,0.95,0.5c0.32,0.06,0.69,0.09,1.11,0.09
			c0.18,0,0.27,0.07,0.27,0.2c0,0.18-0.09,0.31-0.27,0.4c-0.18,0.09-0.38,0.15-0.61,0.18C98.81,73.44,98.61,73.45,98.46,73.45z
			 M91.75,67.17c0.55,0,1.02-0.13,1.43-0.38s0.71-0.58,0.93-0.99c0.22-0.41,0.33-0.84,0.33-1.29c0-0.49-0.06-0.94-0.19-1.34
			s-0.38-0.73-0.75-0.98c-0.38-0.25-0.94-0.37-1.7-0.37c-0.38,0-0.63,0.12-0.75,0.37s-0.19,0.68-0.21,1.3
			c-0.01,0.3-0.02,0.7-0.03,1.21c-0.01,0.51-0.01,1.12-0.01,1.84c0,0.3,0.08,0.48,0.25,0.54S91.45,67.17,91.75,67.17z"/>
		<path d="M102.48,73.16c-0.16,0-0.28-0.02-0.38-0.04c-0.1-0.03-0.14-0.08-0.14-0.15c0-0.14,0.2-0.25,0.59-0.32
			c0.45-0.08,0.8-0.22,1.04-0.41s0.36-0.5,0.36-0.92v-8.11c0-0.42-0.09-0.72-0.26-0.9s-0.49-0.31-0.94-0.39
			c-0.39-0.07-0.59-0.19-0.59-0.36c0-0.07,0.05-0.12,0.14-0.15s0.22-0.04,0.38-0.04c0.32,0,0.59,0.01,0.8,0.02
			c0.21,0.01,0.41,0.02,0.6,0.03s0.42,0.01,0.7,0.01c0.26,0,0.48,0,0.65-0.01c0.17-0.01,0.35-0.01,0.54-0.03
			c0.19-0.01,0.45-0.02,0.77-0.02c0.16,0,0.28,0.01,0.38,0.04c0.09,0.03,0.14,0.08,0.14,0.15c0,0.08-0.05,0.16-0.14,0.21
			c-0.1,0.06-0.25,0.11-0.45,0.14c-0.44,0.08-0.77,0.21-0.97,0.39c-0.2,0.18-0.3,0.48-0.3,0.9v8.11c0,0.42,0.12,0.72,0.38,0.92
			s0.6,0.33,1.04,0.41c0.2,0.04,0.35,0.08,0.45,0.13c0.09,0.05,0.14,0.11,0.14,0.2c0,0.07-0.05,0.12-0.14,0.15
			c-0.1,0.03-0.22,0.04-0.38,0.04c-0.32,0-0.59-0.01-0.8-0.03c-0.21-0.02-0.41-0.03-0.6-0.04c-0.19-0.01-0.42-0.02-0.7-0.02
			c-0.3,0-0.56,0.01-0.78,0.02c-0.22,0.01-0.45,0.03-0.68,0.04C103.08,73.16,102.8,73.16,102.48,73.16z"/>
		<path d="M113.17,73.36c-0.5,0-0.96-0.08-1.39-0.22s-0.8-0.36-1.14-0.64c-0.05-0.05-0.09-0.1-0.13-0.16
			c-0.04-0.06-0.07-0.12-0.1-0.2c-0.06-0.24-0.1-0.55-0.12-0.93s-0.04-0.7-0.06-0.95c0-0.08,0.04-0.15,0.11-0.19
			c0.07-0.04,0.16-0.06,0.25-0.06c0.06,0,0.12,0.02,0.18,0.04c0.06,0.03,0.09,0.08,0.11,0.15c0.24,0.92,0.59,1.58,1.07,1.97
			c0.47,0.39,0.97,0.59,1.48,0.59c0.42,0,0.79-0.09,1.11-0.27c0.32-0.18,0.58-0.43,0.76-0.76c0.18-0.33,0.28-0.71,0.28-1.16
			c0-0.49-0.08-0.89-0.24-1.19c-0.16-0.3-0.39-0.57-0.69-0.8c-0.3-0.23-0.66-0.47-1.09-0.74c-0.47-0.3-0.93-0.6-1.38-0.91
			c-0.45-0.31-0.83-0.66-1.13-1.06s-0.45-0.89-0.45-1.46c0-0.61,0.14-1.16,0.41-1.65s0.69-0.88,1.25-1.17
			c0.56-0.29,1.25-0.44,2.09-0.44c0.43,0,0.8,0.04,1.12,0.13c0.32,0.09,0.57,0.18,0.76,0.26c0.1,0.04,0.18,0.1,0.24,0.18
			c0.07,0.08,0.11,0.17,0.13,0.27c0.07,0.25,0.15,0.54,0.23,0.86c0.08,0.32,0.12,0.63,0.12,0.91c0,0.13-0.09,0.2-0.27,0.2
			c-0.11,0-0.21-0.02-0.31-0.07c-0.1-0.05-0.17-0.11-0.19-0.18c-0.25-0.63-0.54-1.12-0.88-1.45c-0.33-0.33-0.76-0.5-1.27-0.5
			c-0.36,0-0.69,0.07-1,0.2c-0.31,0.13-0.57,0.35-0.76,0.65s-0.3,0.7-0.3,1.2c0,0.36,0.12,0.68,0.35,0.98s0.54,0.57,0.92,0.83
			c0.38,0.26,0.79,0.53,1.24,0.81c0.42,0.25,0.83,0.53,1.23,0.83s0.73,0.65,0.99,1.07c0.26,0.41,0.39,0.92,0.39,1.51
			c0,0.71-0.16,1.33-0.48,1.86c-0.32,0.53-0.78,0.94-1.36,1.23S113.95,73.36,113.17,73.36z"/>
	</g>
</g>
<g>
</g>
<g>
</g>
<g>
</g>
<g>
</g>
<g>
</g>
<g>
</g>
<g>
</g>
<g>
</g>
<g>
</g>
<g>
</g>
<g>
</g>
<g>
</g>
<g>
</g>
<g>
</g>
<g>
</g>
</svg>
